<mxfile host="app.diagrams.net" modified="2023-12-21T19:50:16.137Z" agent="Mozilla/5.0 (Windows NT 10.0; Win64; x64) AppleWebKit/537.36 (KHTML, like Gecko) Chrome/120.0.0.0 Safari/537.36" etag="tfFtaVlkxJmEKgxydN6m" version="22.1.11" type="device">
  <diagram name="Page-1" id="DtfsdLBCdAD9DylW-dNe">
    <mxGraphModel dx="1050" dy="569" grid="1" gridSize="10" guides="1" tooltips="1" connect="1" arrows="1" fold="1" page="1" pageScale="1" pageWidth="850" pageHeight="1100" math="0" shadow="0">
      <root>
        <mxCell id="0" />
        <mxCell id="1" parent="0" />
        <mxCell id="GW1ehdNDemhkXbN0tkEn-1" value="&lt;p style=&quot;margin:0px;margin-top:4px;text-align:center;&quot;&gt;&lt;b&gt;+Client&lt;/b&gt;&lt;/p&gt;&lt;hr size=&quot;1&quot;&gt;&amp;nbsp;+name: string&lt;div style=&quot;height:2px;&quot;&gt;&lt;br&gt;&lt;/div&gt;&lt;hr size=&quot;1&quot;&gt;&lt;div style=&quot;height:2px;&quot;&gt;&amp;nbsp;+CreateRequest(workType: string, aspectedDate: Date): Request&lt;/div&gt;" style="verticalAlign=top;align=left;overflow=fill;fontSize=12;fontFamily=Helvetica;html=1;whiteSpace=wrap;" parent="1" vertex="1">
          <mxGeometry x="40" y="40" width="360" height="80" as="geometry" />
        </mxCell>
        <mxCell id="GW1ehdNDemhkXbN0tkEn-3" value="&lt;p style=&quot;margin:0px;margin-top:4px;text-align:center;&quot;&gt;&lt;b&gt;+Request&lt;/b&gt;&lt;/p&gt;&lt;hr size=&quot;1&quot;&gt;&lt;div style=&quot;height:2px;&quot;&gt;&amp;nbsp;+workType: WorkType&lt;/div&gt;&lt;div style=&quot;height:2px;&quot;&gt;&lt;br&gt;&lt;/div&gt;&lt;div style=&quot;height:2px;&quot;&gt;&lt;br&gt;&lt;/div&gt;&lt;div style=&quot;height:2px;&quot;&gt;&lt;br&gt;&lt;/div&gt;&lt;div style=&quot;height:2px;&quot;&gt;&lt;br&gt;&lt;/div&gt;&lt;div style=&quot;height:2px;&quot;&gt;&lt;br&gt;&lt;/div&gt;&lt;div style=&quot;height:2px;&quot;&gt;&lt;br&gt;&lt;/div&gt;&lt;div style=&quot;height:2px;&quot;&gt;&lt;br&gt;&lt;/div&gt;&lt;div style=&quot;height:2px;&quot;&gt;&amp;nbsp;+aspectedDate: Date&lt;/div&gt;" style="verticalAlign=top;align=left;overflow=fill;fontSize=12;fontFamily=Helvetica;html=1;whiteSpace=wrap;" parent="1" vertex="1">
          <mxGeometry x="60" y="200" width="140" height="70" as="geometry" />
        </mxCell>
        <mxCell id="GW1ehdNDemhkXbN0tkEn-4" value="&lt;p style=&quot;margin:0px;margin-top:4px;text-align:center;&quot;&gt;&lt;b&gt;+Dispatcher&lt;/b&gt;&lt;/p&gt;&lt;hr size=&quot;1&quot;&gt;&amp;nbsp;+suitableBrigades[0...*]: Brigade&lt;br&gt;&amp;nbsp;+workFees: WorkFees&lt;br&gt;&lt;div style=&quot;height:2px;&quot;&gt;&lt;/div&gt;&lt;hr size=&quot;1&quot;&gt;&lt;div style=&quot;height:2px;&quot;&gt;&amp;nbsp;+RegisterBrigade(brigade: Brigade): void&lt;/div&gt;" style="verticalAlign=top;align=left;overflow=fill;fontSize=12;fontFamily=Helvetica;html=1;whiteSpace=wrap;" parent="1" vertex="1">
          <mxGeometry x="520" y="40" width="240" height="90" as="geometry" />
        </mxCell>
        <mxCell id="oEWCT4a1PB-f08HUpW94-5" value="&lt;p style=&quot;margin:0px;margin-top:4px;text-align:center;&quot;&gt;&lt;b&gt;+Brigade&lt;/b&gt;&lt;/p&gt;&lt;hr size=&quot;1&quot;&gt;&lt;div style=&quot;height:2px;&quot;&gt;&amp;nbsp;+workType: WorkType&lt;/div&gt;&lt;div style=&quot;height:2px;&quot;&gt;&lt;br&gt;&lt;/div&gt;&lt;div style=&quot;height:2px;&quot;&gt;&lt;br&gt;&lt;/div&gt;&lt;div style=&quot;height:2px;&quot;&gt;&lt;br&gt;&lt;/div&gt;&lt;div style=&quot;height:2px;&quot;&gt;&lt;br&gt;&lt;/div&gt;&lt;div style=&quot;height:2px;&quot;&gt;&lt;br&gt;&lt;/div&gt;&lt;div style=&quot;height:2px;&quot;&gt;&lt;br&gt;&lt;/div&gt;&lt;div style=&quot;height:2px;&quot;&gt;&amp;nbsp;+workers[0...*]: Worker&lt;/div&gt;" style="verticalAlign=top;align=left;overflow=fill;fontSize=12;fontFamily=Helvetica;html=1;whiteSpace=wrap;" vertex="1" parent="1">
          <mxGeometry x="640" y="200" width="140" height="70" as="geometry" />
        </mxCell>
        <mxCell id="oEWCT4a1PB-f08HUpW94-6" value="&lt;p style=&quot;margin:0px;margin-top:4px;text-align:center;&quot;&gt;&lt;b&gt;+WorkType&lt;/b&gt;&lt;/p&gt;&lt;hr size=&quot;1&quot;&gt;&lt;div style=&quot;height:2px;&quot;&gt;&amp;nbsp;+title: string&lt;/div&gt;&lt;div style=&quot;height:2px;&quot;&gt;&lt;br&gt;&lt;/div&gt;&lt;div style=&quot;height:2px;&quot;&gt;&lt;span style=&quot;white-space: pre;&quot;&gt;&#x9;&lt;/span&gt;&lt;br&gt;&lt;/div&gt;&lt;div style=&quot;height:2px;&quot;&gt;&lt;br&gt;&lt;/div&gt;&lt;div style=&quot;height:2px;&quot;&gt;&lt;br&gt;&lt;/div&gt;&lt;div style=&quot;height:2px;&quot;&gt;&lt;br&gt;&lt;/div&gt;&lt;div style=&quot;height:2px;&quot;&gt;&lt;br&gt;&lt;/div&gt;&lt;div style=&quot;height:2px;&quot;&gt;&lt;br&gt;&lt;/div&gt;&lt;div style=&quot;height:2px;&quot;&gt;&amp;nbsp;+description: string&lt;/div&gt;" style="verticalAlign=top;align=left;overflow=fill;fontSize=12;fontFamily=Helvetica;html=1;whiteSpace=wrap;" vertex="1" parent="1">
          <mxGeometry x="260" y="200" width="140" height="70" as="geometry" />
        </mxCell>
        <mxCell id="oEWCT4a1PB-f08HUpW94-7" value="&lt;p style=&quot;margin:0px;margin-top:4px;text-align:center;&quot;&gt;&lt;b&gt;+WorkFees&lt;/b&gt;&lt;/p&gt;&lt;hr size=&quot;1&quot;&gt;&amp;nbsp;+requests[0...*]: Request&lt;br&gt;&amp;nbsp;+brigades[0..,*]: Brigade&lt;br&gt;&lt;div style=&quot;height:2px;&quot;&gt;&lt;/div&gt;&lt;hr size=&quot;1&quot;&gt;&lt;div style=&quot;height:2px;&quot;&gt;&amp;nbsp;+Register(request: Request, brigade: Brigade): void&lt;/div&gt;" style="verticalAlign=top;align=left;overflow=fill;fontSize=12;fontFamily=Helvetica;html=1;whiteSpace=wrap;" vertex="1" parent="1">
          <mxGeometry x="200" y="355" width="300" height="100" as="geometry" />
        </mxCell>
        <mxCell id="oEWCT4a1PB-f08HUpW94-8" value="&lt;p style=&quot;margin:0px;margin-top:4px;text-align:center;&quot;&gt;&lt;b&gt;+Worker&lt;/b&gt;&lt;/p&gt;&lt;hr size=&quot;1&quot;&gt;&lt;div style=&quot;height:2px;&quot;&gt;&amp;nbsp;+fullName: string&lt;/div&gt;&lt;div style=&quot;height:2px;&quot;&gt;&lt;br&gt;&lt;/div&gt;&lt;div style=&quot;height:2px;&quot;&gt;&lt;br&gt;&lt;/div&gt;&lt;div style=&quot;height:2px;&quot;&gt;&lt;br&gt;&lt;/div&gt;&lt;div style=&quot;height:2px;&quot;&gt;&lt;br&gt;&lt;/div&gt;&lt;div style=&quot;height:2px;&quot;&gt;&lt;br&gt;&lt;/div&gt;&lt;div style=&quot;height:2px;&quot;&gt;&lt;br&gt;&lt;/div&gt;&lt;div style=&quot;height:2px;&quot;&gt;&lt;br&gt;&lt;/div&gt;&lt;div style=&quot;height:2px;&quot;&gt;&amp;nbsp;+salary: uint&lt;/div&gt;" style="verticalAlign=top;align=left;overflow=fill;fontSize=12;fontFamily=Helvetica;html=1;whiteSpace=wrap;" vertex="1" parent="1">
          <mxGeometry x="640" y="355" width="140" height="70" as="geometry" />
        </mxCell>
        <mxCell id="oEWCT4a1PB-f08HUpW94-9" value="" style="endArrow=block;endFill=1;html=1;edgeStyle=orthogonalEdgeStyle;align=left;verticalAlign=top;rounded=0;exitX=0.25;exitY=1;exitDx=0;exitDy=0;entryX=0.5;entryY=0;entryDx=0;entryDy=0;" edge="1" parent="1" source="GW1ehdNDemhkXbN0tkEn-1" target="GW1ehdNDemhkXbN0tkEn-3">
          <mxGeometry x="-1" relative="1" as="geometry">
            <mxPoint x="70" y="320" as="sourcePoint" />
            <mxPoint x="230" y="320" as="targetPoint" />
          </mxGeometry>
        </mxCell>
        <mxCell id="oEWCT4a1PB-f08HUpW94-12" value="" style="endArrow=block;endFill=1;html=1;edgeStyle=orthogonalEdgeStyle;align=left;verticalAlign=top;rounded=0;exitX=0.75;exitY=1;exitDx=0;exitDy=0;entryX=0.357;entryY=0;entryDx=0;entryDy=0;entryPerimeter=0;" edge="1" parent="1" source="GW1ehdNDemhkXbN0tkEn-1" target="oEWCT4a1PB-f08HUpW94-6">
          <mxGeometry x="-1" relative="1" as="geometry">
            <mxPoint x="310" y="140" as="sourcePoint" />
            <mxPoint x="360" y="150" as="targetPoint" />
          </mxGeometry>
        </mxCell>
        <mxCell id="oEWCT4a1PB-f08HUpW94-13" value="" style="endArrow=none;html=1;endSize=12;startArrow=diamondThin;startSize=14;startFill=0;edgeStyle=orthogonalEdgeStyle;align=left;verticalAlign=bottom;rounded=0;endFill=0;exitX=0.5;exitY=1;exitDx=0;exitDy=0;entryX=0;entryY=0.5;entryDx=0;entryDy=0;" edge="1" parent="1" source="GW1ehdNDemhkXbN0tkEn-3" target="oEWCT4a1PB-f08HUpW94-7">
          <mxGeometry x="-1" y="3" relative="1" as="geometry">
            <mxPoint x="70" y="500" as="sourcePoint" />
            <mxPoint x="230" y="500" as="targetPoint" />
          </mxGeometry>
        </mxCell>
        <mxCell id="oEWCT4a1PB-f08HUpW94-18" value="" style="endArrow=none;html=1;endSize=12;startArrow=diamondThin;startSize=14;startFill=0;edgeStyle=orthogonalEdgeStyle;align=left;verticalAlign=bottom;rounded=0;endFill=0;exitX=1;exitY=0.5;exitDx=0;exitDy=0;entryX=0;entryY=0.5;entryDx=0;entryDy=0;" edge="1" parent="1" source="GW1ehdNDemhkXbN0tkEn-3" target="oEWCT4a1PB-f08HUpW94-6">
          <mxGeometry x="-1" y="3" relative="1" as="geometry">
            <mxPoint x="140" y="280" as="sourcePoint" />
            <mxPoint x="210" y="415" as="targetPoint" />
          </mxGeometry>
        </mxCell>
        <mxCell id="oEWCT4a1PB-f08HUpW94-19" value="" style="endArrow=none;html=1;endSize=12;startArrow=diamondThin;startSize=14;startFill=0;edgeStyle=orthogonalEdgeStyle;align=left;verticalAlign=bottom;rounded=0;endFill=0;entryX=1;entryY=0.5;entryDx=0;entryDy=0;exitX=0;exitY=0.75;exitDx=0;exitDy=0;" edge="1" parent="1" source="oEWCT4a1PB-f08HUpW94-5" target="oEWCT4a1PB-f08HUpW94-7">
          <mxGeometry x="-1" y="3" relative="1" as="geometry">
            <mxPoint x="620" y="360" as="sourcePoint" />
            <mxPoint x="510" y="345" as="targetPoint" />
            <Array as="points">
              <mxPoint x="600" y="252" />
              <mxPoint x="600" y="405" />
            </Array>
          </mxGeometry>
        </mxCell>
        <mxCell id="oEWCT4a1PB-f08HUpW94-20" value="" style="endArrow=none;html=1;endSize=12;startArrow=diamondThin;startSize=14;startFill=0;edgeStyle=orthogonalEdgeStyle;align=left;verticalAlign=bottom;rounded=0;endFill=0;exitX=0.5;exitY=1;exitDx=0;exitDy=0;entryX=0.5;entryY=0;entryDx=0;entryDy=0;" edge="1" parent="1" source="oEWCT4a1PB-f08HUpW94-5" target="oEWCT4a1PB-f08HUpW94-8">
          <mxGeometry x="-1" y="3" relative="1" as="geometry">
            <mxPoint x="450" y="310" as="sourcePoint" />
            <mxPoint x="520" y="445" as="targetPoint" />
          </mxGeometry>
        </mxCell>
        <mxCell id="oEWCT4a1PB-f08HUpW94-21" value="" style="endArrow=none;html=1;endSize=12;startArrow=diamondThin;startSize=14;startFill=0;edgeStyle=orthogonalEdgeStyle;align=left;verticalAlign=bottom;rounded=0;endFill=0;entryX=0.5;entryY=0;entryDx=0;entryDy=0;exitX=0.79;exitY=0.993;exitDx=0;exitDy=0;exitPerimeter=0;" edge="1" parent="1" source="GW1ehdNDemhkXbN0tkEn-4" target="oEWCT4a1PB-f08HUpW94-5">
          <mxGeometry x="-1" y="3" relative="1" as="geometry">
            <mxPoint x="730" y="160" as="sourcePoint" />
            <mxPoint x="810.07" y="185.80999999999997" as="targetPoint" />
          </mxGeometry>
        </mxCell>
        <mxCell id="oEWCT4a1PB-f08HUpW94-22" value="" style="endArrow=none;html=1;endSize=12;startArrow=diamondThin;startSize=14;startFill=0;edgeStyle=orthogonalEdgeStyle;align=left;verticalAlign=bottom;rounded=0;endFill=0;exitX=0.169;exitY=1.011;exitDx=0;exitDy=0;entryX=0.75;entryY=0;entryDx=0;entryDy=0;exitPerimeter=0;" edge="1" parent="1" source="GW1ehdNDemhkXbN0tkEn-4" target="oEWCT4a1PB-f08HUpW94-7">
          <mxGeometry x="-1" y="3" relative="1" as="geometry">
            <mxPoint x="429.49" y="190" as="sourcePoint" />
            <mxPoint x="499.49" y="325" as="targetPoint" />
            <Array as="points">
              <mxPoint x="561" y="280" />
              <mxPoint x="425" y="280" />
            </Array>
          </mxGeometry>
        </mxCell>
        <mxCell id="oEWCT4a1PB-f08HUpW94-23" value="" style="endArrow=none;html=1;endSize=12;startArrow=diamondThin;startSize=14;startFill=0;edgeStyle=orthogonalEdgeStyle;align=left;verticalAlign=bottom;rounded=0;endFill=0;exitX=0;exitY=0.25;exitDx=0;exitDy=0;entryX=1;entryY=0.25;entryDx=0;entryDy=0;" edge="1" parent="1" source="oEWCT4a1PB-f08HUpW94-5" target="oEWCT4a1PB-f08HUpW94-6">
          <mxGeometry x="-1" y="3" relative="1" as="geometry">
            <mxPoint x="190" y="330" as="sourcePoint" />
            <mxPoint x="480" y="220" as="targetPoint" />
          </mxGeometry>
        </mxCell>
        <mxCell id="oEWCT4a1PB-f08HUpW94-25" value="" style="endArrow=block;endFill=1;html=1;edgeStyle=orthogonalEdgeStyle;align=left;verticalAlign=top;rounded=0;entryX=1;entryY=0.5;entryDx=0;entryDy=0;exitX=0.003;exitY=0.439;exitDx=0;exitDy=0;exitPerimeter=0;" edge="1" parent="1" source="GW1ehdNDemhkXbN0tkEn-4" target="GW1ehdNDemhkXbN0tkEn-1">
          <mxGeometry x="-1" relative="1" as="geometry">
            <mxPoint x="500" y="80" as="sourcePoint" />
            <mxPoint x="460" y="120" as="targetPoint" />
          </mxGeometry>
        </mxCell>
      </root>
    </mxGraphModel>
  </diagram>
</mxfile>
